<svg id="Layer_1" data-name="Layer 1" xmlns="http://www.w3.org/2000/svg" viewBox="0 0 335.49 329.36"><defs><style>.cls-1{fill:#fff;}.cls-2,.cls-3{fill:none;stroke:#fff;stroke-miterlimit:10;}.cls-2{stroke-width:4px;}.cls-3{stroke-width:2px;}</style></defs><title>Artboard 3</title><rect class="cls-1" x="147.88" y="141.13" width="42.59" height="60.26" rx="12.04"/><path class="cls-1" d="M136.33,180.87c-7.76,5.41-15.19,8.15-16.6,6.12s3.74-8,11.5-13.45a53.52,53.52,0,0,1,9.53-5.39,53.27,53.27,0,0,1-9.64-5.2c-7.87-5.24-13.14-11.16-11.77-13.21s8.86.53,16.72,5.78c6,4,10.5,8.4,11.67,11.17l0-7.09c0-1.64.07-3.06.15-4.34.28-4.79-1.49-9.31-4.42-11.35L51.94,80.56c-4.8-3.33-10.57,1.35-10.93,9.2,0,.27,0,.55,0,.82V218.75c0,5,2,9.24,5,11.07a5.18,5.18,0,0,0,4.46.49l77.83-29.94c9.25-4.91,19.63-4.85,19.63-11.45l-.12-19.42C146.62,172.29,142.24,176.76,136.33,180.87Z"/><path class="cls-1" d="M147.75,168.82v.68a3.09,3.09,0,0,0,.27-1.43,1.38,1.38,0,0,1-.19.66Z"/><path class="cls-1" d="M147.83,167.42a1.38,1.38,0,0,1,.2.65,3,3,0,0,0-.29-1.38v.65Z"/><path class="cls-1" d="M147.75,167.34v1.48l.09-.09a1.2,1.2,0,0,0,0-1.31Z"/><path class="cls-1" d="M201.9,181.69c7.75,5.41,15.19,8.15,16.6,6.12s-3.74-8-11.5-13.45a53.52,53.52,0,0,0-9.53-5.39,53.27,53.27,0,0,0,9.64-5.2c7.87-5.25,13.14-11.16,11.77-13.21s-8.86.53-16.72,5.78c-6,4-10.5,8.4-11.67,11.17l0-7.09c0-1.64-.07-3.06-.15-4.34-.28-4.79,1.49-9.32,4.42-11.35l91.48-63.35c4.81-3.33,10.57,1.35,10.94,9.2,0,.27,0,.55,0,.82V219.57c0,5-2.05,9.24-5,11.06a5.15,5.15,0,0,1-4.46.5L210,201.19c-9.25-4.92-19.63-4.85-19.63-11.45l.12-19.42C191.61,173.11,196,177.58,201.9,181.69Z"/><path class="cls-1" d="M190.48,169.64v.68a3.09,3.09,0,0,1-.27-1.43,1.31,1.31,0,0,0,.19.66Z"/><path class="cls-1" d="M190.4,168.24a1.38,1.38,0,0,0-.2.65,2.93,2.93,0,0,1,.29-1.38v.65S190.42,168.21,190.4,168.24Z"/><path class="cls-1" d="M190.48,168.16v1.48l-.09-.09a1.31,1.31,0,0,1-.19-.66,1.38,1.38,0,0,1,.2-.65S190.46,168.19,190.48,168.16Z"/><path class="cls-2" d="M86.51,88.26c5.93-5.64,37.39-34.43,85.79-33.19C216.81,56.2,245.34,82,252,88.26"/><path class="cls-3" d="M95.13,93.53c5.29-5,33.33-30.79,76.46-29.68,39.67,1,65.11,24,71,29.68"/><path class="cls-2" d="M252,241.1c-5.93,5.64-37.39,34.43-85.79,33.19-44.51-1.14-73-26.89-79.66-33.19"/><path class="cls-3" d="M243.34,235.83c-5.29,5-33.33,30.79-76.46,29.68-39.67-1-65.11-24-71-29.68"/></svg>
