<svg id="Layer_1" data-name="Layer 1" xmlns="http://www.w3.org/2000/svg" viewBox="0 0 335.49 329.36"><defs><style>.cls-1{fill:#fff;}.cls-2,.cls-3{fill:none;stroke:#fff;stroke-miterlimit:10;}.cls-2{stroke-width:0.5px;}</style></defs><title>japanlogov3</title><rect class="cls-1" x="146.51" y="136.85" width="42.59" height="60.26" rx="12.04"/><path class="cls-1" d="M107.13,45.07l.21.39a7,7,0,0,0-1.32,1,3.22,3.22,0,0,0-.7,1.12,3.29,3.29,0,0,0-.11,1.92,12.28,12.28,0,0,0,1.25,2.81l8.47,15.25a16.29,16.29,0,0,1,1.64,3.75,5.29,5.29,0,0,1-.07,2.82,7.55,7.55,0,0,1-1.66,2.76A10.56,10.56,0,0,1,112,79.2a9.38,9.38,0,0,1-2,.83,5.27,5.27,0,0,1-1.76.26,2.1,2.1,0,0,1-1.92-1.08,1.55,1.55,0,0,1-.16-1.22,1.54,1.54,0,0,1,.8-1,1.63,1.63,0,0,1,1.27-.17,2.31,2.31,0,0,1,.64.3c.21.14.57.43,1.07.85a3,3,0,0,0,1.27.67,1.81,1.81,0,0,0,1.2-.26,2.41,2.41,0,0,0,1.13-1.32,3.86,3.86,0,0,0,.08-2,24.49,24.49,0,0,0-2.53-5.55l-8.39-15.11a13.34,13.34,0,0,0-1.24-1.86,3.58,3.58,0,0,0-1.79-1.28,4.58,4.58,0,0,0-3.35.32l-.22-.39Z"/><path class="cls-1" d="M149.41,58.19,137.14,62l-.13-.43a5.8,5.8,0,0,0,2.14-1.27,2.38,2.38,0,0,0,.54-2.37A6.19,6.19,0,0,0,138.54,56L138,55.3l-3.15-3.86L126.62,54l-.18,2.88-.11,1.3a9.71,9.71,0,0,0,.15,3.49,2.91,2.91,0,0,0,1.83,1.91,4,4,0,0,0,2.05,0l.13.43-8.36,2.57-.13-.43a4.08,4.08,0,0,0,1.58-1,5.27,5.27,0,0,0,1-1.83,11.56,11.56,0,0,0,.56-2.33c.13-.92.26-2.27.39-4.07L127,37.18l1.07-.33L142.21,54q1.6,1.94,2.43,2.73a5,5,0,0,0,1.62,1.07,3.29,3.29,0,0,0,1.18.2,10.66,10.66,0,0,0,1.84-.22ZM134.3,50.77l-6.89-8.47-.73,10.81Z"/><path class="cls-1" d="M159.77,44.69l.32,7a14.15,14.15,0,0,0,.36,3,3.28,3.28,0,0,0,2.17,2.3,6.39,6.39,0,0,0,1.83.24l0,.45L152,58.21l0-.45a6.31,6.31,0,0,0,1.81-.41,3.32,3.32,0,0,0,1.18-.87,3.06,3.06,0,0,0,.76-1.62,14.39,14.39,0,0,0,.08-3l-.67-14.38a16.44,16.44,0,0,0-.27-2.58,4,4,0,0,0-.56-1.45,3.25,3.25,0,0,0-1.35-1.1,5.34,5.34,0,0,0-2.05-.36h-.13l0-.45L162.53,31a22.94,22.94,0,0,1,4.56.1,6.42,6.42,0,0,1,2.73,1.12,6.73,6.73,0,0,1,3,5.49,5.64,5.64,0,0,1-2.57,5.36,8.29,8.29,0,0,1-3.5,1.2c-.44.06-1.51.13-3.2.21Zm0-.63,1.91-.09a12.07,12.07,0,0,0,3-.42,4.46,4.46,0,0,0,1.82-1.13,6,6,0,0,0,1.69-4.71,7.59,7.59,0,0,0-.69-2.91,5.35,5.35,0,0,0-1.69-2.1,5.13,5.13,0,0,0-2.89-1c-.3,0-1,0-2,.05l-1.64.08Z"/><path class="cls-1" d="M203.8,62.67,191.23,60.1l.09-.44a5.89,5.89,0,0,0,2.49-.09,2.35,2.35,0,0,0,1.6-1.82,6,6,0,0,0-.1-2.22l-.16-.87-.92-4.89-8.42-1.71-1.53,2.43-.72,1.09A9.41,9.41,0,0,0,182,54.72a2.8,2.8,0,0,0,0,1.38,2.73,2.73,0,0,0,.64,1.17,4,4,0,0,0,1.79,1l-.09.44L175.84,57l.09-.44a4,4,0,0,0,1.88-.14,5.18,5.18,0,0,0,1.78-1.11,10.73,10.73,0,0,0,1.61-1.78c.56-.74,1.32-1.87,2.3-3.38L194.18,33.5l1.09.22,4.22,21.81a35.46,35.46,0,0,0,.83,3.56,4.87,4.87,0,0,0,.91,1.72,3.46,3.46,0,0,0,.94.74,11.07,11.07,0,0,0,1.72.68Zm-9.72-13.74-2-10.74-5.81,9.14Z"/><path class="cls-1" d="M221.1,45.27l-7.89,15A15,15,0,0,0,212,63.05a3.39,3.39,0,0,0,0,1.79,3.31,3.31,0,0,0,.72,1.3,6.21,6.21,0,0,0,1.46,1.12l-.21.4-8-4.18.21-.4a6.56,6.56,0,0,0,1.75.56,3.44,3.44,0,0,0,1.48-.15,3.23,3.23,0,0,0,1.47-1A14,14,0,0,0,212.5,60l6.7-12.77a14.13,14.13,0,0,0,1.16-2.71,3.3,3.3,0,0,0,0-1.79,3.11,3.11,0,0,0-.7-1.29,6.67,6.67,0,0,0-1.48-1.13l.21-.4,6.66,3.5,4.65,25.28,6.55-12.49a14.32,14.32,0,0,0,1.18-2.73,3.39,3.39,0,0,0,0-1.79,3.31,3.31,0,0,0-.72-1.3,6.13,6.13,0,0,0-1.45-1.12l.21-.4,8,4.18-.21.4A4,4,0,0,0,240,53a3.25,3.25,0,0,0-1.48,1A14.18,14.18,0,0,0,237,56.5l-9.54,18.2-.78-.41Z"/><path class="cls-1" d="M86.41,236.75,79.88,241a14.54,14.54,0,0,0-2.34,1.78,3.32,3.32,0,0,0-.88,1.56,3.13,3.13,0,0,0,0,1.49,6.06,6.06,0,0,0,.73,1.71l-.38.24-6.82-10.45.38-.25a5.19,5.19,0,0,0,1.22,1.33,3.27,3.27,0,0,0,1.4.65,3.54,3.54,0,0,0,1.81-.25,14.3,14.3,0,0,0,2.57-1.4l12-7.86A25.49,25.49,0,0,0,91.7,228a3.19,3.19,0,0,0,1.23-2.8,5.43,5.43,0,0,0-.81-2.2l.38-.25,11.15,17.09-5,3.95-.32-.33a13.68,13.68,0,0,0,1.37-2,6.55,6.55,0,0,0,.23-5.87,21.39,21.39,0,0,0-1.7-3l-1.65-2.53-9.65,6.3.43.65q1.89,2.9,4,3.36a4.41,4.41,0,0,0,1.88,0,9,9,0,0,0,2.25-.9l.23.38-10,6.37-.26-.39a9.75,9.75,0,0,0,2.18-2.3,4,4,0,0,0,.6-2.27,5.65,5.65,0,0,0-.45-2A15.14,15.14,0,0,0,86.41,236.75Z"/><path class="cls-1" d="M109.74,279.73l-10.07-8,.28-.35a5.86,5.86,0,0,0,2.26,1,2.39,2.39,0,0,0,2.26-.9,6.2,6.2,0,0,0,.9-2l.25-.85L107,263.9l-6.75-5.32-2.46,1.48-1.14.65a9.5,9.5,0,0,0-2.78,2.11,2.81,2.81,0,0,0-.58,1.25,2.75,2.75,0,0,0,0,1.34,3.93,3.93,0,0,0,1.14,1.7l-.27.35L87.35,262l.28-.35a4,4,0,0,0,1.74.72,5.09,5.09,0,0,0,2.09-.19,10.46,10.46,0,0,0,2.23-.86c.84-.41,2-1.07,3.58-2l17-10,.87.69-6.06,21.37a34.15,34.15,0,0,0-.86,3.55,5.22,5.22,0,0,0,0,2,3.44,3.44,0,0,0,.51,1.08,10.36,10.36,0,0,0,1.23,1.38Zm-2.48-16.65,3-10.48-9.3,5.54Z"/><path class="cls-1" d="M119.42,284.08l3-7.48.41.18a17.59,17.59,0,0,0,0,5.23q.77,3.83,3.77,5a5,5,0,0,0,4,0,5.25,5.25,0,0,0,2.76-3,6.85,6.85,0,0,0,.44-2,6,6,0,0,0-.15-2,6.69,6.69,0,0,0-.95-1.95,29,29,0,0,0-2.26-2.8,29.62,29.62,0,0,1-2.06-2.52,8.26,8.26,0,0,1-1-1.8,6.36,6.36,0,0,1,.08-4.77,7.67,7.67,0,0,1,1.76-2.67,7.52,7.52,0,0,1,2.64-1.73,7,7,0,0,1,5.26,0,7.5,7.5,0,0,1,1.52.8,14,14,0,0,1,1.67,1.45c.51.48.86.8,1.05,1a2.57,2.57,0,0,0,.55.33c.42.16.83,0,1.22-.59l.41.16-2.72,7.27-.42-.17c.13-1.28.2-2.27.2-3a10.37,10.37,0,0,0-.17-2,7,7,0,0,0-1.13-2.87,4.77,4.77,0,0,0-2.19-1.65,4.29,4.29,0,0,0-3.76.11,4.65,4.65,0,0,0-1.3,1,4.93,4.93,0,0,0-.88,1.42c-.8,2-.14,4.17,2,6.43l2.07,2.25a12.45,12.45,0,0,1,3,4.77,7.46,7.46,0,0,1-.25,5,8.45,8.45,0,0,1-1.93,2.93,7.67,7.67,0,0,1-4.13,2.15,8.94,8.94,0,0,1-4.9-.61,12.36,12.36,0,0,1-4.14-2.7c-.62-.63-1-1-1.12-1.1a2.08,2.08,0,0,0-.47-.27,1.31,1.31,0,0,0-1.54.4Z"/><path class="cls-1" d="M156,280.72,169.78,282l.57-6.25a13.73,13.73,0,0,0,.05-3,3.39,3.39,0,0,0-.68-1.66,3.56,3.56,0,0,0-1.16-.93,6.22,6.22,0,0,0-1.79-.47l0-.45,12.43,1.14,0,.45a6.52,6.52,0,0,0-1.83.14,3.24,3.24,0,0,0-1.31.71,3.2,3.2,0,0,0-1,1.51,13.77,13.77,0,0,0-.5,2.92l-1.31,14.34a14.22,14.22,0,0,0-.05,2.95,3.23,3.23,0,0,0,1.84,2.59,6.2,6.2,0,0,0,1.77.49l0,.45-12.43-1.14,0-.45a6.2,6.2,0,0,0,1.84-.15,3.54,3.54,0,0,0,1.31-.7,3.26,3.26,0,0,0,1-1.5,13.77,13.77,0,0,0,.5-2.93l.66-7.18-13.81-1.27-.66,7.18a14.41,14.41,0,0,0,0,3,3.35,3.35,0,0,0,.68,1.66,3.42,3.42,0,0,0,1.15.92,6.11,6.11,0,0,0,1.78.48l0,.45-12.42-1.14,0-.44a6.15,6.15,0,0,0,1.84-.16,3.23,3.23,0,0,0,1.29-.69,3.13,3.13,0,0,0,1-1.5,14,14,0,0,0,.49-2.94l1.31-14.33a14,14,0,0,0,.06-3,3.08,3.08,0,0,0-.69-1.65,3.12,3.12,0,0,0-1.15-.93,6.65,6.65,0,0,0-1.78-.48l0-.45,12.43,1.14,0,.45a6.13,6.13,0,0,0-1.83.15,3.22,3.22,0,0,0-1.31.7,3.32,3.32,0,0,0-1,1.51,13.89,13.89,0,0,0-.5,2.93Z"/><path class="cls-1" d="M193.87,264.73l.11.43a6.74,6.74,0,0,0-1.67.76,3.33,3.33,0,0,0-1,1.11,3.67,3.67,0,0,0-.36,2.34c.1.68.27,1.46.49,2.33l3.64,13.93a17.2,17.2,0,0,0,.8,2.43,4.25,4.25,0,0,0,.87,1.33,3.14,3.14,0,0,0,1.56.79,5.91,5.91,0,0,0,2.18-.09l.11.43-12.07,3.16-.12-.44a5.83,5.83,0,0,0,1.69-.77,3.28,3.28,0,0,0,1-1.09,3.18,3.18,0,0,0,.42-1.75,15.51,15.51,0,0,0-.55-2.92l-3.64-13.93a14.49,14.49,0,0,0-.95-2.82,3.42,3.42,0,0,0-2.61-1.8,6.68,6.68,0,0,0-1.84.16l-.11-.44Z"/><path class="cls-1" d="M205.09,275.86a13.47,13.47,0,0,1-1.87-6,14.32,14.32,0,0,1,1.06-6.3,15.67,15.67,0,0,1,2.54-4.24,13.8,13.8,0,0,1,3.62-3.09,13.46,13.46,0,0,1,5.68-1.81,15,15,0,0,1,6.13.72,13.06,13.06,0,0,1,7.47,5.92,13.23,13.23,0,0,1,1.67,4.62,13.7,13.7,0,0,1-.11,5,14.57,14.57,0,0,1-12.72,11.81,14.32,14.32,0,0,1-6-.63,13.11,13.11,0,0,1-4.25-2.3A13.75,13.75,0,0,1,205.09,275.86Zm4.23-2.14a14.85,14.85,0,0,0,7.5,6.68,9.21,9.21,0,0,0,3.82.69,7.74,7.74,0,0,0,3.49-1.13,7.83,7.83,0,0,0,2.71-2.5,9,9,0,0,0,1.26-3.69,15,15,0,0,0-2.22-9.87,20.33,20.33,0,0,0-3.74-4.7,14.18,14.18,0,0,0-4.48-2.89,7.94,7.94,0,0,0-3.58-.61,8.38,8.38,0,0,0-3.5,1.21,8.24,8.24,0,0,0-2.72,2.44,8.07,8.07,0,0,0-1.23,3.44,14.12,14.12,0,0,0,.35,5.3A21,21,0,0,0,209.32,273.72Z"/><path class="cls-1" d="M231.25,245.74l13.7,10a14.15,14.15,0,0,0,2.53,1.58,3.35,3.35,0,0,0,1.77.26,3.28,3.28,0,0,0,1.39-.51,6.46,6.46,0,0,0,1.32-1.28l.36.27L247,263.36l-.36-.26a6,6,0,0,0,.81-1.65,3.19,3.19,0,0,0,.08-1.48,3.36,3.36,0,0,0-.8-1.61,14,14,0,0,0-2.25-1.93l-11.63-8.52a13.9,13.9,0,0,0-2.5-1.56,3.32,3.32,0,0,0-1.78-.27,3.15,3.15,0,0,0-1.38.5,6.28,6.28,0,0,0-1.33,1.29l-.36-.27,4.44-6.06,25.7-.83-11.38-8.34a13.63,13.63,0,0,0-2.53-1.57,3.25,3.25,0,0,0-1.76-.27,3.2,3.2,0,0,0-1.4.52,6.12,6.12,0,0,0-1.32,1.27l-.36-.27,5.32-7.26.36.27a4,4,0,0,0-.88,3.12,3.37,3.37,0,0,0,.79,1.62,13.85,13.85,0,0,0,2.24,1.91l16.57,12.15-.52.71Z"/><path class="cls-1" d="M145.73,111.2c0-1.74,2.73-1.5,3.75-1.5a30.59,30.59,0,0,0,3.12-.09,4,4,0,0,0,.81-2.34c0-1.68-1-3.42-2.13-5.22a30.76,30.76,0,0,1-1.53-2.7c-1.5,2.28-3.21,4.77-4.77,7.08q-1.84,2.7-3.33,4.95a.35.35,0,0,1-.33.15.36.36,0,0,1-.36-.36A.56.56,0,0,1,141,111l3.33-4.95c1.68-2.46,3.48-5.1,5-7.5a7,7,0,0,1-.48-2.43,5,5,0,0,1,.33-1.83c.51-1.32,1.5-2.85,2.94-2.85a1.29,1.29,0,0,1,1.11.57,1.49,1.49,0,0,1,.21.81,2.74,2.74,0,0,1-.48,1.47c-.75,1.23-1.71,2.73-2.79,4.35a30.91,30.91,0,0,0,1.68,3.06c1.11,1.83,2.28,3.75,2.28,5.64a4.56,4.56,0,0,1-.54,2.1,10,10,0,0,0,3.75-3.09.39.39,0,0,1,.3-.12.34.34,0,0,1,.33.36.48.48,0,0,1-.09.27c-1.89,2.16-3.24,3.24-4.95,3.51a7.19,7.19,0,0,1-5.1,2.07C147.05,112.4,145.73,112.19,145.73,111.2Zm.75,0c0,.45,1.14.48,1.38.48a7,7,0,0,0,3.9-1.23c-.75,0-1.56,0-2.79,0C148.22,110.45,146.48,110.39,146.48,111.17ZM150,94.52a4.12,4.12,0,0,0-.3,1.56,5.1,5.1,0,0,0,.27,1.62c.93-1.41,1.77-2.73,2.46-3.84a2.09,2.09,0,0,0,.36-1,.6.6,0,0,0-.6-.66C151.49,92.15,150.59,92.84,150,94.52Z"/><path class="cls-1" d="M157.25,106.58a.37.37,0,0,1,.12-.27,16.72,16.72,0,0,0,2.52-3.39h-1.47a.4.4,0,0,1-.39-.39.37.37,0,0,1,.39-.36h1.86c.27-.51.51-1.08.78-1.65,1-2.52,1.35-3.33,1.35-3.33a.39.39,0,0,1,.36-.24.36.36,0,0,1,.36.36.88.88,0,0,1-.06.27c-.57,1.44-1.11,2.73-1.74,4.23l-.15.36h3.06a.37.37,0,0,1,.39.36.4.4,0,0,1-.39.39h-3.36c-.69,1.77-1.71,4.59-1.71,6.27,0,.57.18,1.41.81,1.41.9,0,3.12-2.37,4.83-4.29a.37.37,0,0,1,.27-.12.39.39,0,0,1,.39.36.45.45,0,0,1-.12.27c-1,1.17-3.84,4.53-5.37,4.53-1.08,0-1.53-1.08-1.53-2.13a14.27,14.27,0,0,1,.81-4,19.17,19.17,0,0,1-1.35,1.59.37.37,0,0,1-.27.12A.37.37,0,0,1,157.25,106.58Z"/><path class="cls-1" d="M167.57,110.15a8.36,8.36,0,0,1,1.47-3.33s.72-1.2,1.11-2a1.94,1.94,0,0,0,.21-.69c0-.18-.06-.3-.42-.3h-.63a.87.87,0,0,1-.93-.57c-.81,1-1.86,2.25-3,3.57a.33.33,0,0,1-.27.12.35.35,0,0,1-.36-.36.48.48,0,0,1,.09-.27c1.17-1.32,2.22-2.58,3-3.57.42-.54.72-.87,1-1.17a.46.46,0,0,1,.33-.18.35.35,0,0,1,.39.33.89.89,0,0,1-.15.42,1.88,1.88,0,0,0-.27.81c0,.12.21.12.39.12h.63a1,1,0,0,1,1,.93,9.26,9.26,0,0,1-1.44,3.21,8.5,8.5,0,0,0-1.35,2.94.47.47,0,0,0,.48.48.66.66,0,0,0,.39-.12,40,40,0,0,0,4.23-4.2.45.45,0,0,1,.27-.12.42.42,0,0,1,.39.36.45.45,0,0,1-.12.27,34.86,34.86,0,0,1-4.35,4.32,1.59,1.59,0,0,1-.81.24A1.22,1.22,0,0,1,167.57,110.15Z"/><path class="cls-1" d="M172.85,108.89c0-2.52,2.37-6.87,5-6.87a1.35,1.35,0,0,1,1.53,1.35c0,1.38-1.83,3.06-5.52,3.84a6.15,6.15,0,0,0-.27,1.74c0,1,.45,1.71,1.47,1.71,1.41,0,3.78-1.29,6.45-4.35a.35.35,0,0,1,.3-.12.36.36,0,0,1,.33.39.34.34,0,0,1-.09.24c-2.52,2.91-5.07,4.59-6.93,4.59A2.22,2.22,0,0,1,172.85,108.89Zm1.35-2.52c3.12-.78,4.44-2.19,4.44-3,0-.45-.51-.57-.78-.57C176.3,102.77,174.8,105.05,174.2,106.37Z"/><path class="cls-1" d="M181,108.89c0-2.52,2.37-6.87,5-6.87a1.35,1.35,0,0,1,1.53,1.35c0,1.38-1.83,3.06-5.52,3.84a6.15,6.15,0,0,0-.27,1.74c0,1,.45,1.71,1.47,1.71,1.41,0,3.78-1.29,6.45-4.35a.35.35,0,0,1,.3-.12.36.36,0,0,1,.33.39.34.34,0,0,1-.09.24c-2.52,2.91-5.07,4.59-6.93,4.59A2.22,2.22,0,0,1,181,108.89Zm1.35-2.52c3.12-.78,4.44-2.19,4.44-3,0-.45-.51-.57-.78-.57C184.4,102.77,182.9,105.05,182.3,106.37Z"/><path class="cls-1" d="M189.5,106.58a.37.37,0,0,1,.12-.27,16.72,16.72,0,0,0,2.52-3.39h-1.47a.4.4,0,0,1-.39-.39.37.37,0,0,1,.39-.36h1.86c.27-.51.51-1.08.78-1.65,1-2.52,1.35-3.33,1.35-3.33A.39.39,0,0,1,195,97a.36.36,0,0,1,.36.36.88.88,0,0,1-.06.27c-.57,1.44-1.11,2.73-1.74,4.23l-.15.36h3.06a.37.37,0,0,1,.39.36.4.4,0,0,1-.39.39h-3.36c-.69,1.77-1.71,4.59-1.71,6.27,0,.57.18,1.41.81,1.41.9,0,3.12-2.37,4.83-4.29a.37.37,0,0,1,.27-.12.39.39,0,0,1,.39.36.45.45,0,0,1-.12.27c-1,1.17-3.84,4.53-5.37,4.53-1.08,0-1.53-1.08-1.53-2.13a14.27,14.27,0,0,1,.81-4,19.17,19.17,0,0,1-1.35,1.59.37.37,0,0,1-.27.12A.37.37,0,0,1,189.5,106.58Z"/><path class="cls-1" d="M135,176.59c-7.76,5.4-15.19,8.14-16.6,6.12s3.74-8.05,11.5-13.45a52.9,52.9,0,0,1,9.53-5.39,53.91,53.91,0,0,1-9.64-5.2c-7.87-5.25-13.14-11.16-11.77-13.22s8.86.54,16.72,5.79c6,4,10.5,8.4,11.67,11.16l0-7.08c0-1.64.07-3.07.15-4.35.28-4.78-1.49-9.31-4.42-11.34L50.57,76.28C45.77,73,40,77.63,39.64,85.48c0,.27,0,.54,0,.82V214.47c0,5,2,9.24,5,11.06a5.15,5.15,0,0,0,4.46.5l77.83-29.94c9.25-4.92,19.63-4.86,19.63-11.46l-.12-19.42C145.25,168,140.87,172.47,135,176.59Z"/><path class="cls-1" d="M146.38,164.53v.68a3.05,3.05,0,0,0,.27-1.42,1.41,1.41,0,0,1-.19.66A.73.73,0,0,1,146.38,164.53Z"/><path class="cls-1" d="M146.46,163.14a1.38,1.38,0,0,1,.2.65,3,3,0,0,0-.29-1.39v.66Z"/><path class="cls-1" d="M146.38,163.06v1.47a.73.73,0,0,0,.09-.08,1.41,1.41,0,0,0,.19-.66,1.38,1.38,0,0,0-.2-.65Z"/><path class="cls-1" d="M200.53,177.41c7.75,5.4,15.19,8.14,16.6,6.12s-3.74-8.05-11.5-13.45a53.63,53.63,0,0,0-9.53-5.4,53.79,53.79,0,0,0,9.64-5.19c7.87-5.25,13.14-11.16,11.77-13.22s-8.86.54-16.72,5.78c-6,4-10.5,8.41-11.67,11.17l0-7.08c0-1.64-.07-3.07-.15-4.35-.28-4.78,1.49-9.31,4.42-11.34L284.91,77.1c4.81-3.33,10.57,1.35,10.94,9.2,0,.27,0,.54,0,.82V215.29c0,5-2.05,9.24-5,11.06a5.12,5.12,0,0,1-4.46.49L208.61,196.9C199.36,192,189,192.05,189,185.45L189.1,166C190.24,168.83,194.62,173.29,200.53,177.41Z"/><path class="cls-1" d="M189.11,165.35V166a3.05,3.05,0,0,1-.27-1.42,1.34,1.34,0,0,0,.19.66A.73.73,0,0,0,189.11,165.35Z"/><path class="cls-1" d="M189,164a1.38,1.38,0,0,0-.2.65,3,3,0,0,1,.29-1.39v.66Z"/><path class="cls-1" d="M189.11,163.88v1.47a.73.73,0,0,1-.09-.08,1.34,1.34,0,0,1-.19-.66,1.38,1.38,0,0,1,.2-.65Z"/><line class="cls-2" x1="140.58" y1="113.17" x2="197.56" y2="113.17"/><line class="cls-3" x1="140.63" y1="115.11" x2="197.6" y2="115.11"/></svg>
